# xmcd
# 
# Track frame offsets:
#     150
#     16179
#     32966
#     55854
#     69375
#     87834
#     103272
#     121821
#     139523
#     156507
#     174992
#     193182
#     207447
#     227927
#     246321
#     264201
#     284196
#     300916
#     321273
# 
# Disc length: 4483
# 
# Revision: 1
# Processed by: cddbd v1.5.2PL0 Copyright (c) Steve Scherf et al.
# Submitted via: fre:ac v1.0.17
# 
DISCID=12118113
DTITLE=Various Artist - Black Power
DYEAR=2008
DGENRE=Hip Hop
TTITLE0=Amy Winehouse - Rehab
TTITLE1=Nelly Furtado - Say it raight
TTITLE2=Black Eye Peas - Union
TTITLE3=Timbaland Vs Nephew feat Keri Hilson and D.O.E. - The way I are
TTITLE4=Ja Rule feat Ashanti - Always on time
TTITLE5=Prima J - Rock Star
TTITLE6=50 Cent Feat Justin Timberlake and Timbaland - Ayo Technology
TTITLE7=Jada Montel - So Jealous
TTITLE8=The Pussycats Dolls - Buttons
TTITLE9=Aaliyah - Miss you
TTITLE10=Mary J. Blige - Just Fine
TTITLE11=50 Cent - Amusement Park
TTITLE12=The Pussycats Dolls feat Busta Rhymes - Don´t Cha
TTITLE13=Jackie - Naughty
TTITLE14=Alison Hinds - Roll it Gall
TTITLE15=Mary J. Blige - Family affair
TTITLE16=Soulja Boy Tell'em - Cranck That (Saoulja Boy)
TTITLE17=Common - I want you
TTITLE18=Allegro feat L.V., Fresh Game and Cokni O'Dire - Someone Else
EXTD=
EXTT0=
EXTT1=
EXTT2=
EXTT3=
EXTT4=
EXTT5=
EXTT6=
EXTT7=
EXTT8=
EXTT9=
EXTT10=
EXTT11=
EXTT12=
EXTT13=
EXTT14=
EXTT15=
EXTT16=
EXTT17=
EXTT18=
PLAYORDER=
